<?xml version="1.0" encoding="utf-8"?>
<!-- Generator: Adobe Illustrator 24.0.2, SVG Export Plug-In . SVG Version: 6.00 Build 0)  -->
<svg version="1.1" id="Warstwa_1" xmlns="http://www.w3.org/2000/svg" xmlns:xlink="http://www.w3.org/1999/xlink" x="0px" y="0px"
	 viewBox="0 0 500 500" style="enable-background:new 0 0 500 500;" xml:space="preserve">
<style type="text/css">
	.st0{display:none;}
	.st1{display:inline;fill:#EFDBCE;}
	.st2{display:inline;}
	.st3{clip-path:url(#SVGID_2_);fill:#88C381;}
	.st4{clip-path:url(#SVGID_2_);fill:#FFFFFF;}
	.st5{display:inline;fill:#88C381;}
	.st6{display:inline;fill:#72AA2F;}
	.st7{fill:#40ABA8;}
	.st8{fill:#50BDC6;}
	.st9{fill:#40ABA8;stroke:#39808C;stroke-miterlimit:10;}
	.st10{fill:#51BDC6;}
	.st11{fill:#39808C;stroke:#44A3A3;stroke-miterlimit:10;}
	.st12{fill:none;stroke:#38808C;stroke-width:2;stroke-miterlimit:10;}
	.st13{fill:#38808C;}
	.st14{display:inline;fill:#3D5E93;}
	.st15{display:inline;fill:#3D5E94;}
	.st16{display:inline;fill:#D6BCDC;}
	.st17{clip-path:url(#SVGID_4_);fill:none;stroke:#D7BCDC;stroke-width:3;stroke-miterlimit:10;}
	.st18{clip-path:url(#SVGID_6_);fill:none;stroke:#FFFFFF;stroke-width:5;stroke-miterlimit:10;}
	.st19{display:inline;fill:#E1CCE5;}
	.st20{display:inline;fill:#CDB1D6;}
	.st21{display:inline;fill:#A5CF92;}
	.st22{display:inline;fill:#CAE0B2;}
	.st23{display:inline;fill:#8FB478;}
	.st24{display:inline;fill:#A6CF93;}
	.st25{fill:#A6CF93;stroke:#FFFFFF;stroke-width:2;stroke-miterlimit:10;}
	.st26{fill:none;stroke:#999693;stroke-width:4;stroke-linecap:round;stroke-miterlimit:10;}
	.st27{display:inline;fill:#616160;}
	.st28{display:inline;fill:#757474;}
	.st29{clip-path:url(#SVGID_8_);}
	.st30{fill:none;stroke:#B7825C;stroke-width:12;stroke-miterlimit:10;}
	.st31{fill:none;stroke:#DEA883;stroke-width:12;stroke-miterlimit:10;}
	.st32{fill:none;stroke:#C6C6C6;stroke-width:5;stroke-miterlimit:10;}
	.st33{display:inline;fill:#706F6F;}
	.st34{fill:#FEE9D6;}
	.st35{fill:#FFFFFF;}
	.st36{fill:#47707C;}
	.st37{display:none;fill:#DBAB7F;}
	.st38{fill:#EED0B7;}
	.st39{fill:#D7B995;}
	.st40{clip-path:url(#SVGID_10_);}
	.st41{display:none;clip-path:url(#SVGID_10_);fill:#D45C40;}
	.st42{display:inline;fill:#735D45;}
	.st43{display:inline;fill:#745E46;}
	.st44{display:inline;fill:none;stroke:#C3A38A;stroke-width:3;stroke-linecap:round;stroke-miterlimit:10;}
	.st45{fill:#F4DCC9;}
	.st46{fill:#696861;}
	.st47{fill:#876A89;}
	.st48{clip-path:url(#SVGID_12_);fill:#C6C6C6;}
	.st49{fill:#C6C6C6;}
	.st50{display:inline;fill:#FFFFFF;}
	.st51{display:inline;fill:none;stroke:#B2B2B2;stroke-width:2;stroke-linecap:round;stroke-miterlimit:10;}
	.st52{display:inline;fill:#C6C6C6;}
	.st53{fill:#FDEBD7;}
	.st54{fill:#233326;}
	.st55{opacity:0.47;clip-path:url(#SVGID_14_);fill:#FFED00;}
	.st56{opacity:0.47;clip-path:url(#SVGID_16_);fill:#FFED00;}
	.st57{opacity:0.4;fill:#DBDBDB;stroke:#1D1D1B;stroke-miterlimit:10;}
	.st58{fill:none;stroke:#67665A;stroke-miterlimit:10;}
	.st59{fill:#6C6C69;}
	.st60{fill:#FFFFFF;stroke:#1D1D1B;stroke-width:0.25;stroke-miterlimit:10;}
	.st61{fill:#FDE7DA;}
	.st62{clip-path:url(#head_6_);fill:#F9F5F2;}
	.st63{fill:#F9F5F2;}
	.st64{fill:#6CC5D4;}
	.st65{opacity:0.67;fill:#999999;}
	.st66{fill:#C7C6C6;}
	.st67{fill:#FCE4DD;}
	.st68{fill:#6DA64B;}
	.st69{display:inline;fill:#4A494A;}
	.st70{display:inline;fill:none;stroke:#C6C6C6;stroke-width:0.25;stroke-miterlimit:10;}
	.st71{display:inline;fill:none;stroke:#A8978F;stroke-width:0.75;stroke-linecap:round;stroke-miterlimit:10;}
	.st72{display:inline;fill:#9D9D9C;}
	.st73{display:inline;fill:#6C534A;stroke:#C6C6C6;stroke-width:2;stroke-linecap:round;stroke-miterlimit:10;}
	.st74{display:inline;fill:none;stroke:#C6C6C6;stroke-linecap:round;stroke-miterlimit:10;}
	.st75{display:inline;fill:#634E42;}
	.st76{clip-path:url(#SVGID_18_);fill:#776359;}
	.st77{display:inline;fill:#6C655E;}
	.st78{display:inline;fill:#496369;}
	.st79{display:inline;fill:#535F5F;}
	.st80{display:inline;fill:#628489;}
	.st81{display:inline;fill:#767F64;}
	.st82{display:inline;fill:#585951;}
	.st83{clip-path:url(#SVGID_20_);}
	.st84{fill:none;stroke:#D1CD9F;stroke-width:5;stroke-linecap:round;stroke-miterlimit:10;}
	.st85{display:inline;fill:none;stroke:#3C3C3B;stroke-width:8;stroke-linecap:round;stroke-miterlimit:10;}
	.st86{display:none;fill:#3F3C38;}
</style>
<g id="set1">
	<g id="body">
		<g id="_x35_" class="st0">
			<path class="st1" d="M394.7,486.3H109c-18.5,0-33.4-15-33.4-33.4v-86.2c0-68.2,55.3-123.4,123.4-123.4h105.7
				c68.2,0,123.4,55.3,123.4,123.4v86.2C428.1,471.3,413.2,486.3,394.7,486.3z"/>
			<g class="st2">
				<defs>
					<path id="SVGID_1_" d="M394.7,486.3H109c-18.5,0-33.4-15-33.4-33.4v-86.2c0-68.2,55.3-123.4,123.4-123.4h105.7
						c68.2,0,123.4,55.3,123.4,123.4v86.2C428.1,471.3,413.2,486.3,394.7,486.3z"/>
				</defs>
				<clipPath id="SVGID_2_">
					<use xlink:href="#SVGID_1_"  style="overflow:visible;"/>
				</clipPath>
				<path class="st3" d="M395.2,500H108.5V294.4c0-28.2,22.9-51.1,51.1-51.1h184.5c28.2,0,51.1,22.9,51.1,51.1V500z"/>
				<path class="st4" d="M241.7,324.9l-60.4-80.3c-5.9-7.8-0.3-19,9.5-19h120.8c9.8,0,15.4,11.2,9.5,19l-60.4,80.3
					C255.9,331.2,246.4,331.2,241.7,324.9z"/>
			</g>
			<rect x="108.5" y="486.3" class="st5" width="286.7" height="13.7"/>
			<path class="st6" d="M339,400.6h-30.2c-3.9,0-7-3.1-7-7v-55.7H346v55.7C346,397.5,342.9,400.6,339,400.6z"/>
			<path class="st1" d="M241.7,318.3l-52.9-70.4c-5.9-7.8-0.3-19,9.5-19h105.9c9.8,0,15.4,11.2,9.5,19l-52.9,70.4
				C255.9,324.6,246.4,324.6,241.7,318.3z"/>
		</g>
		<g id="_x34__1_">
			<path class="st7" d="M394.7,484.9H109c-18.5,0-33.4-15-33.4-33.4v-84.9c0-68.2,55.3-123.4,123.4-123.4h105.7
				c68.2,0,123.4,55.3,123.4,123.4v84.9C428.1,470,413.2,484.9,394.7,484.9z"/>
			<path class="st8" d="M402.4,500H101.3V366.1c0-48.4,39.2-87.6,87.6-87.6h125.9c48.4,0,87.6,39.2,87.6,87.6V500z"/>
			<g id="buttons_1_">
				<g id="button_6_">
					<circle class="st9" cx="241.7" cy="449.5" r="10.3"/>
					<circle class="st10" cx="238.2" cy="445.9" r="1.5"/>
					<circle class="st10" cx="245.1" cy="445.9" r="1.5"/>
					<circle class="st10" cx="245.1" cy="453.5" r="1.5"/>
					<circle class="st10" cx="238.2" cy="453.5" r="1.5"/>
				</g>
				<g id="button_5_">
					<circle class="st9" cx="241.7" cy="337.8" r="10.3"/>
					<circle class="st10" cx="238.2" cy="334.3" r="1.5"/>
					<circle class="st10" cx="245.1" cy="334.3" r="1.5"/>
					<circle class="st10" cx="245.1" cy="341.9" r="1.5"/>
					<circle class="st10" cx="238.2" cy="341.9" r="1.5"/>
				</g>
				<g id="button_4_">
					<circle class="st11" cx="241.7" cy="393.2" r="10.3"/>
					<circle class="st10" cx="238.2" cy="389.7" r="1.5"/>
					<circle class="st10" cx="245.1" cy="389.7" r="1.5"/>
					<circle class="st10" cx="245.1" cy="397.3" r="1.5"/>
					<circle class="st10" cx="238.2" cy="397.3" r="1.5"/>
				</g>
			</g>
			<line class="st12" x1="260.7" y1="295.6" x2="260.7" y2="498.6"/>
			<path class="st13" d="M244.6,298.2l-57.8-38.6c-9.8-6.5-5.1-21.8,6.6-21.8h115.5c11.8,0,16.4,15.2,6.6,21.8l-57.8,38.6
				C253.8,300.9,248.6,300.9,244.6,298.2z"/>
		</g>
		<g id="_x33__1_" class="st0">
			<path class="st14" d="M394.7,484.9H109c-18.5,0-33.4-15-33.4-33.4v-84.9c0-68.2,55.3-123.4,123.4-123.4h105.7
				c68.2,0,123.4,55.3,123.4,123.4v84.9C428.1,470,413.2,484.9,394.7,484.9z"/>
			<path class="st15" d="M402.4,500H101.3V366.1c0-48.4,39.2-87.6,87.6-87.6h125.9c48.4,0,87.6,39.2,87.6,87.6V500z"/>
			<path class="st16" d="M244.6,298.2l-57.8-38.6c-9.8-6.5-5.1-21.8,6.6-21.8h115.5c11.8,0,16.4,15.2,6.6,21.8l-57.8,38.6
				C253.8,300.9,248.6,300.9,244.6,298.2z"/>
			<g class="st2">
				<defs>
					<path id="SVGID_3_" d="M244.6,298.2l-57.8-38.6c-9.8-6.5-5.1-21.8,6.6-21.8h115.5c11.8,0,16.4,15.2,6.6,21.8l-57.8,38.6
						C253.8,300.9,248.6,300.9,244.6,298.2z"/>
				</defs>
				<clipPath id="SVGID_4_">
					<use xlink:href="#SVGID_3_"  style="overflow:visible;"/>
				</clipPath>
				<line class="st17" x1="172.5" y1="245.8" x2="262.3" y2="305.8"/>
				<line class="st17" x1="172.5" y1="238.8" x2="262.3" y2="298.8"/>
				<line class="st17" x1="172.5" y1="231.8" x2="262.3" y2="291.8"/>
				<line class="st17" x1="334.3" y1="245.8" x2="244.5" y2="305.8"/>
				<line class="st17" x1="334.3" y1="238.8" x2="244.5" y2="298.8"/>
				<line class="st17" x1="334.3" y1="231.8" x2="244.5" y2="291.8"/>
			</g>
			<path class="st16" d="M251.4,433L251.4,433c-5.6,0-9.8-0.5-9.8-5.6l-5.1-120.5c0-5.1,9.7-9.9,15.2-9.9h0c5.6,0,14.7,4.2,14.7,9.3
				l-4.6,121.1C261.8,432.5,257,433,251.4,433z"/>
			<g class="st2">
				<defs>
					<path id="SVGID_5_" d="M251.4,433L251.4,433c-5.6,0-9.8-0.5-9.8-5.6l-5.1-120.5c0-5.1,9.7-9.9,15.2-9.9h0
						c5.6,0,14.7,4.2,14.7,9.3l-4.6,121.1C261.8,432.5,257,433,251.4,433z"/>
				</defs>
				<clipPath id="SVGID_6_">
					<use xlink:href="#SVGID_5_"  style="overflow:visible;"/>
				</clipPath>
				<line class="st18" x1="225.6" y1="383.5" x2="275.1" y2="345.2"/>
				<line class="st18" x1="225.6" y1="409.5" x2="275.1" y2="371.2"/>
				<line class="st18" x1="225.6" y1="357.6" x2="275.1" y2="319.2"/>
				<line class="st18" x1="225.6" y1="331.6" x2="275.1" y2="293.3"/>
				<line class="st18" x1="225.6" y1="435.5" x2="275.1" y2="397.2"/>
			</g>
			<path class="st19" d="M243.8,310.1l-22.2-18.6c-8.5-7.1-3.5-21,7.6-21h44.5c11.1,0,16.1,13.9,7.6,21L259,310.1
				C254.6,313.8,248.2,313.8,243.8,310.1z"/>
			<path class="st19" d="M194,340.8v43.1c0,6.6-4.3,12-9.6,12h-35.5c-5.3,0-9.6-5.4-9.6-12v-43.1"/>
			<rect x="139.3" y="340.8" class="st20" width="54.7" height="9.6"/>
		</g>
		<g id="_x32_" class="st0">
			<path class="st21" d="M394.7,484.9H109c-18.5,0-33.4-15-33.4-33.4v-84.9c0-68.2,55.3-123.4,123.4-123.4h105.7
				c68.2,0,123.4,55.3,123.4,123.4v84.9C428.1,470,413.2,484.9,394.7,484.9z"/>
			<path class="st22" d="M407.2,500.2H96.6V369.9c0-49.7,40.3-90,90-90h130.6c49.7,0,90,40.3,90,90V500.2z"/>
			<path class="st22" d="M252.2,332.3L169.3,244c-2.3-2.4-0.6-6.4,2.8-6.4h165.8c3.3,0,5.1,4,2.8,6.4l-82.9,88.4
				C256.3,333.9,253.7,333.9,252.2,332.3z"/>
			<path class="st23" d="M165.5,439h179c1.7,0,2.9,1.3,2.4,2.6l-11.7,31.6c-2.9,7-6.5,11.7-14.5,11.7H189.3
				c-7.9,0-12.1-5.4-14.5-11.7l-11.7-31.6C162.6,440.3,163.8,439,165.5,439z"/>
			<path class="st24" d="M295.4,649.1"/>
			<g class="st2">
				<circle class="st25" cx="212" cy="289.4" r="8.2"/>
				<line class="st26" x1="212" y1="287.9" x2="212" y2="363.3"/>
			</g>
			<g class="st2">
				<circle class="st25" cx="294.1" cy="289.4" r="8.2"/>
				<line class="st26" x1="294.1" y1="287.9" x2="294.1" y2="353.7"/>
			</g>
		</g>
		<g id="_x31_" class="st0">
			<path class="st27" d="M394.7,486.3H109c-18.5,0-33.4-15-33.4-33.4v-86.2c0-68.2,55.3-123.4,123.4-123.4h105.7
				c68.2,0,123.4,55.3,123.4,123.4v86.2C428.1,471.3,413.2,486.3,394.7,486.3z"/>
			<path class="st28" d="M402.4,500H101.3V366.4c0-48.4,39.2-87.6,87.6-87.6h125.9c48.4,0,87.6,39.2,87.6,87.6V500z"/>
			<g class="st2">
				<defs>
					<path id="SVGID_7_" d="M402.4,500H101.3V368.8c0-49.7,40.3-90,90-90h121.1c49.7,0,90,40.3,90,90V500z"/>
				</defs>
				<clipPath id="SVGID_8_">
					<use xlink:href="#SVGID_7_"  style="overflow:visible;"/>
				</clipPath>
				<g class="st29">
					<g id="stripes">
						<line class="st30" x1="79.8" y1="303.8" x2="254.5" y2="367.5"/>
						<line class="st30" x1="424.9" y1="303.9" x2="250.6" y2="367.5"/>
					</g>
					<g id="stripes_1_">
						<line class="st31" x1="65.1" y1="263.7" x2="254.1" y2="327.4"/>
						<line class="st31" x1="438.4" y1="263.8" x2="249.8" y2="327.4"/>
					</g>
					<g id="stripes_4_">
						<line class="st31" x1="65.1" y1="344.2" x2="254.1" y2="407.9"/>
						<line class="st31" x1="438.4" y1="344.3" x2="249.8" y2="407.8"/>
					</g>
					<g id="stripes_2_">
						<line class="st30" x1="65.1" y1="384.5" x2="254.1" y2="448.2"/>
						<line class="st30" x1="438.4" y1="384.6" x2="249.8" y2="448.2"/>
					</g>
					<g id="stripes_3_">
						<line class="st31" x1="65.1" y1="424.8" x2="254.1" y2="488.5"/>
						<line class="st31" x1="438.4" y1="424.9" x2="249.8" y2="488.5"/>
					</g>
					<line class="st32" x1="251.5" y1="500" x2="251.5" y2="299.3"/>
				</g>
			</g>
			<path class="st33" d="M244,300.6l-68.1-34.5c-16.3-8.3-10.4-32.9,7.9-32.9h136.1c18.3,0,24.2,24.6,7.9,32.9l-68.1,34.5
				C254.8,303.1,249,303.1,244,300.6z"/>
		</g>
	</g>
	<g id="face">
		<g id="male-1" class="st0">
			<g id="head" class="st2">
				<path class="st34" d="M147.9,162c0,0-0.2,25.5,22.7,65.3c9.9,17.2,32.4,22.4,49.3,37.2c0,0,10.4,9.5,32,9.5V15.3
					C251.9,15.3,142.1,5.5,147.9,162z"/>
				<path class="st34" d="M355.5,162c0,0,0.2,25.5-22.7,65.3c-9.9,17.2-32.4,22.4-49.3,37.2c0,0-10.4,9.5-32,9.5V15.3
					C251.5,15.3,361.3,5.5,355.5,162z"/>
			</g>
			<g id="head_2_" class="st2">
				<path class="st34" d="M147.9,162c0,0-0.2,25.5,22.7,65.3c9.9,17.2,32.4,22.4,49.3,37.2c0,0,10.4,9.5,32,9.5V15.3
					C251.9,15.3,142.1,5.5,147.9,162z"/>
				<path class="st34" d="M355.5,162c0,0,0.2,25.5-22.7,65.3c-9.9,17.2-32.4,22.4-49.3,37.2c0,0-10.4,9.5-32,9.5V15.3
					C251.5,15.3,361.3,5.5,355.5,162z"/>
			</g>
			<g id="eyes_2_" class="st2">
				<g id="eye_2_">
					<ellipse class="st35" cx="285" cy="140.4" rx="15" ry="16.9"/>
					<ellipse class="st36" cx="285" cy="140.4" rx="7.6" ry="8.6"/>
					<ellipse class="st35" cx="287.9" cy="137.1" rx="1.1" ry="1.2"/>
				</g>
			</g>
			<g id="eyes_3_" class="st2">
				<g id="eye_3_">
					<ellipse class="st35" cx="216.1" cy="140.4" rx="15" ry="16.9"/>
					<ellipse class="st36" cx="216.1" cy="140.4" rx="7.6" ry="8.6"/>
					<ellipse class="st35" cx="219" cy="137.1" rx="1.1" ry="1.2"/>
				</g>
			</g>
			<g id="eyebrows" class="st2">
				<path class="st37" d="M313.4,118.3l-31.3-13.9c-1-0.5-1.5-1.7-1.1-2.7l1.4-3.3c0.5-1,1.7-1.5,2.7-1.1l31.3,13.9
					c1,0.5,1.5,1.7,1.1,2.7l-1.4,3.3C315.7,118.3,314.5,118.7,313.4,118.3z"/>
			</g>
			<g id="mounth" class="st2">
				<path class="st38" d="M225.2,218.6c0,11.1,11.8,20.1,26.3,20.1c14.5,0,26.3-9,26.3-20.1"/>
				<path class="st39" d="M279.9,215.9c0,10.8-12.5,19.5-28,19.5s-28-8.7-28-19.5"/>
				<g>
					<defs>
						<path id="SVGID_9_" d="M279.9,215.9c0,10.8-12.5,19.5-28,19.5s-28-8.7-28-19.5"/>
					</defs>
					<clipPath id="SVGID_10_">
						<use xlink:href="#SVGID_9_"  style="overflow:visible;"/>
					</clipPath>
					<g class="st40">
						<path class="st35" d="M219.3,216.9c5.6-2.5,11.2-3.8,16.8-4.7c5.6-0.9,11.2-1.3,16.8-1.3c5.6,0,11.2,0.4,16.8,1.3
							c5.6,0.9,11.2,2.2,16.8,4.7c-5.6,2.5-11.2,3.8-16.8,4.7c-5.6,0.9-11.2,1.3-16.8,1.3c-5.6,0-11.2-0.4-16.8-1.3
							C230.5,220.6,224.9,219.4,219.3,216.9z"/>
					</g>
					<path class="st41" d="M269.7,231.3c0,0-6.6-6.5-15.9-3c0,0-5.2-4-19.7,6.8C234,235.1,251,244.5,269.7,231.3z"/>
				</g>
			</g>
			<path class="st42" d="M272.3,96.6c0,0-5.4,3.2-4.4,7l39.3,11.4c0,0,2.7-1.2,2.6-3.5L272.3,96.6z"/>
			<path class="st43" d="M198.6,99.9c0,0-4,4.6,0,8.4c0,0,37.8-1,37.9-2.1c0.2-1.1,0.8-6-3.8-6.3C228,99.6,198.6,99.9,198.6,99.9z"
				/>
			<path class="st44" d="M241.4,183.2c0,0,2.3,0,3.4,0.8c0.3,0.2,0.6,0.4,1,0.5c1.9,0.4,7.4,1.5,10.7-0.2c0,0,2-1.3,4.4-1.1"/>
		</g>
		<g id="male-2" class="st0">
			<g id="head_1_" class="st2">
				<path class="st45" d="M147.9,162c0,0-0.2,25.5,22.7,65.3c9.9,17.2,32.4,22.4,49.3,37.2c0,0,10.4,9.5,32,9.5V15.3
					C251.9,15.3,142.1,5.5,147.9,162z"/>
				<path class="st45" d="M355.5,162c0,0,0.2,25.5-22.7,65.3c-9.9,17.2-32.4,22.4-49.3,37.2c0,0-10.4,9.5-32,9.5V15.3
					C251.5,15.3,361.3,5.5,355.5,162z"/>
			</g>
			<g id="eyebrows_1_" class="st2">
				<path class="st46" d="M233.4,107.1v6c0,0-19.3-0.6-28.7,3.1l-1.3-6.1C203.4,110.1,217.1,104.6,233.4,107.1z"/>
				<path class="st46" d="M267.3,108.5l1.4,4.9c0,0,19.4-4.7,33.8-2.5l-1.2-5.2C301.4,105.7,285.9,102.7,267.3,108.5z"/>
			</g>
			<g id="eyes_1_" class="st2">
				<g id="eye">
					<ellipse class="st35" cx="218.4" cy="140.4" rx="15" ry="19.9"/>
					<ellipse class="st47" cx="218.4" cy="140.4" rx="7.6" ry="10.1"/>
					<ellipse class="st35" cx="221.3" cy="136.5" rx="1.1" ry="1.5"/>
				</g>
				<g id="eye_1_">
					<ellipse class="st35" cx="285" cy="140.4" rx="15" ry="19.9"/>
					<ellipse class="st47" cx="285" cy="140.4" rx="7.6" ry="10.1"/>
					<ellipse class="st35" cx="287.9" cy="136.5" rx="1.1" ry="1.5"/>
				</g>
			</g>
			<g id="beard" class="st2">
				<g>
					<defs>
						<path id="SVGID_11_" d="M251.9,15.3V274c-21.6,0-32-9.5-32-9.5c-16.9-14.9-39.4-20-49.3-37.2c-22.9-39.8-22.7-65.3-22.7-65.3
							C142.1,5.5,251.9,15.3,251.9,15.3z M251.5,15.3V274c21.6,0,32-9.5,32-9.5c16.9-14.9,39.4-20,49.3-37.2
							c22.9-39.8,22.7-65.3,22.7-65.3C361.3,5.5,251.5,15.3,251.5,15.3z"/>
					</defs>
					<clipPath id="SVGID_12_">
						<use xlink:href="#SVGID_11_"  style="overflow:visible;"/>
					</clipPath>
					<path class="st48" d="M357.4,176.8c0,0-4-16.7-20.2,6.7c-16.2,23.3-40.1,66-85.4,66l-0.4,26l0.4,7.1l131.9-41.8L357.4,176.8z"
						/>
					<path class="st48" d="M145.9,176.8c0,0,4-16.7,20.2,6.7s40.1,66,85.4,66l0.4,26l-0.4,7.1l-131.9-41.8L145.9,176.8z"/>
				</g>
				<rect x="251.2" y="249.4" class="st49" width="1.1" height="24.6"/>
			</g>
			<path id="mounth_1_" class="st50" d="M280.4,212.5c0,10-12.7,18.1-28.3,18.1s-28.3-8.1-28.3-18.1"/>
			<path id="nose_1_" class="st51" d="M245.7,177.4c0,0,5.5,4.4,13,0"/>
			<path class="st52" d="M294.3,237.3c0,0,7.5-40.2-9.3-40.2s-33.5,0-33.5,0l-0.1,7.5l33.5-0.1c0,0,7.7,10.5-0.6,26.2
				s-13.2,11-32.3,11l-0.2,9.3l39.4-5.3L294.3,237.3z"/>
			<path class="st52" d="M209.9,237.3c0,0-7.5-40.2,9.3-40.2s33.5,0,33.5,0l0.1,7.5l-33.5-0.1c0,0-7.7,10.5,0.6,26.2
				s13.2,11,32.3,11l0.2,9.3l-39.4-5.3L209.9,237.3z"/>
		</g>
		<g id="male-3" class="st0">
			<g id="head_3_" class="st2">
				<path class="st53" d="M147.9,162c0,0-0.2,25.5,22.7,65.3c9.9,17.2,32.4,22.4,49.3,37.2c0,0,10.4,9.5,32,9.5V15.3
					C251.9,15.3,142.1,5.5,147.9,162z"/>
				<path class="st53" d="M355.5,162c0,0,0.2,25.5-22.7,65.3c-9.9,17.2-32.4,22.4-49.3,37.2c0,0-10.4,9.5-32,9.5V15.3
					C251.5,15.3,361.3,5.5,355.5,162z"/>
			</g>
			<g id="eyes_4_" class="st2">
				<g id="eye_4_">
					<ellipse class="st35" cx="289.7" cy="142.3" rx="13.9" ry="19.6"/>
					<ellipse class="st54" cx="289.7" cy="142.3" rx="7.1" ry="9.9"/>
					<ellipse class="st35" cx="293" cy="135.3" rx="2.5" ry="2.2"/>
				</g>
				<g id="eye_5_">
					<ellipse class="st35" cx="213.3" cy="142.3" rx="13.9" ry="19.6"/>
					<ellipse class="st54" cx="213.3" cy="142.3" rx="7.1" ry="9.9"/>
					<ellipse class="st35" cx="216.6" cy="135.3" rx="2.5" ry="2.2"/>
				</g>
			</g>
			<g class="st2">
				<g>
					<defs>
						<ellipse id="SVGID_13_" cx="212.9" cy="142.3" rx="27.9" ry="30.4"/>
					</defs>
					<clipPath id="SVGID_14_">
						<use xlink:href="#SVGID_13_"  style="overflow:visible;"/>
					</clipPath>
					
						<rect x="188.5" y="99.8" transform="matrix(0.837 0.5472 -0.5472 0.837 104.6635 -84.2567)" class="st55" width="10.5" height="67.6"/>
					
						<rect x="212.5" y="111.8" transform="matrix(0.837 0.5472 -0.5472 0.837 115.1415 -95.4334)" class="st55" width="10.5" height="67.6"/>
					
						<rect x="227.5" y="125.8" transform="matrix(0.837 0.5472 -0.5472 0.837 125.247 -101.3593)" class="st55" width="10.5" height="67.6"/>
				</g>
				<g>
					<defs>
						<ellipse id="SVGID_15_" cx="289.9" cy="142.3" rx="27.9" ry="30.4"/>
					</defs>
					<clipPath id="SVGID_16_">
						<use xlink:href="#SVGID_15_"  style="overflow:visible;"/>
					</clipPath>
					
						<rect x="265.5" y="99.8" transform="matrix(0.837 0.5472 -0.5472 0.837 117.2137 -126.3902)" class="st56" width="10.5" height="67.6"/>
					
						<rect x="289.5" y="111.8" transform="matrix(0.837 0.5472 -0.5472 0.837 127.6917 -137.5668)" class="st56" width="10.5" height="67.6"/>
					
						<rect x="304.5" y="125.8" transform="matrix(0.837 0.5472 -0.5472 0.837 137.7972 -143.4928)" class="st56" width="10.5" height="67.6"/>
				</g>
				<ellipse class="st57" cx="212.9" cy="142.3" rx="27.9" ry="30.4"/>
				<ellipse class="st57" cx="290.1" cy="142.3" rx="27.9" ry="30.4"/>
				<path class="st58" d="M240.2,134.4c0,0,11.4-9.3,22.8,0"/>
				<path class="st58" d="M240.9,187.8c0,0,13.1,7.6,21.4,0"/>
				<path class="st59" d="M197.4,104.8c0,0,17.6-11.2,35.8,0l1.6-4.1c0,0-17.3-11.4-36.4-0.8L197.4,104.8z"/>
				<path class="st59" d="M265.6,101.4l3.7,4.7c0,0,13.7-8.2,33.5-1.5l-2.5-4.2C300.3,100.5,282.8,92.6,265.6,101.4z"/>
				<path class="st60" d="M227.2,213.7v7.7c0,0,25.8,24.1,53,0v-7.7C280.2,213.7,257.6,223.1,227.2,213.7z"/>
			</g>
		</g>
		<g id="male-4" class="st0">
			<g id="head_4_" class="st2">
				<path class="st61" d="M147.9,162c0,0-0.2,25.5,22.7,65.3c9.9,17.2,32.4,22.4,49.3,37.2c0,0,10.4,9.5,32,9.5V15.3
					C251.9,15.3,142.1,5.5,147.9,162z"/>
				<path class="st61" d="M355.5,162c0,0,0.2,25.5-22.7,65.3c-9.9,17.2-32.4,22.4-49.3,37.2c0,0-10.4,9.5-32,9.5V15.3
					C251.5,15.3,361.3,5.5,355.5,162z"/>
			</g>
			<g class="st2">
				<defs>
					<path id="head_5_" d="M251.9,15.3V274c-21.6,0-32-9.5-32-9.5c-16.9-14.9-39.4-20-49.3-37.2c-22.9-39.8-22.7-65.3-22.7-65.3
						C142.1,5.5,251.9,15.3,251.9,15.3z M251.5,15.3V274c21.6,0,32-9.5,32-9.5c16.9-14.9,39.4-20,49.3-37.2
						c22.9-39.8,22.7-65.3,22.7-65.3C361.3,5.5,251.5,15.3,251.5,15.3z"/>
				</defs>
				<clipPath id="head_6_">
					<use xlink:href="#head_5_"  style="overflow:visible;"/>
				</clipPath>
				<path class="st62" d="M358.8,210.9c0,0-64.5,76-107.2,76l0.3-34c0,0,24.4-0.8,38-13.4c11.1-10.3,17.2-18.7,24.8-32.4
					c7.2-13,35-45.5,42.7-38.7C365,175.2,362.3,206.5,358.8,210.9z"/>
				<path class="st62" d="M144.7,210.9c0,0,64.5,76,107.2,76l-0.3-34c0,0-24.4-0.8-37.9-13.4c-11.1-10.3-17.2-18.7-24.8-32.4
					c-7.2-13-35-45.5-42.7-38.7S141.2,206.5,144.7,210.9z"/>
			</g>
			<g id="eyes_5_" class="st2">
				<g id="eye_7_">
					<polygon class="st63" points="251.6,252.9 251.9,252.9 251.9,274 251.5,274 251.4,252.9 					"/>
					<ellipse class="st35" cx="289.7" cy="135.3" rx="13.9" ry="15.2"/>
					<ellipse class="st64" cx="289.7" cy="135.3" rx="8" ry="8.7"/>
					<circle class="st35" cx="293.3" cy="129.6" r="2.4"/>
				</g>
			</g>
			<g id="eyes_6_" class="st2">
				<g id="eye_6_">
					<ellipse class="st35" cx="213.7" cy="137.3" rx="13.9" ry="15.2"/>
					<ellipse class="st64" cx="213.7" cy="137.3" rx="8" ry="8.7"/>
					<circle class="st35" cx="217.3" cy="131.6" r="2.4"/>
				</g>
			</g>
			<g class="st2">
				<path class="st35" d="M195.3,122.1c0,0,13.2-15.9,37.7-2.4l2.9-5.5c0,0-15.8-14.3-40,0L195.3,122.1z"/>
				<path class="st35" d="M270.2,107.4l3.5,6.8c0,0,12.4-12.8,35.8-2.1l-1-7.8C308.5,104.3,285.7,91.9,270.2,107.4z"/>
				<g>
					<circle class="st65" cx="221.3" cy="160.6" r="20.6"/>
					<circle class="st65" cx="283.6" cy="157.9" r="20.6"/>
					<path class="st65" d="M236,147c0,0,13.6-12,31.2-1.4l0.2,1.8c0,0-15.7-11.2-31.5,1.3L236,147z"/>
					<path class="st65" d="M303.8,162l6.4,44.8c0,0,2,1,2-0.5l-8-50.5L303.8,162z"/>
				</g>
				<path class="st66" d="M238.1,194.1c0,0,2.8,7.8,13.4,7.9v-1.6c0,0-4,0-6.7-1.9s-5.1-4.4-5.1-4.4H238.1z"/>
				<path class="st66" d="M264.9,194.1c0,0-2.8,7.8-13.4,7.9v-1.6c0,0,4,0,6.7-1.9c2.7-1.9,5.1-4.4,5.1-4.4H264.9z"/>
				<path class="st35" d="M227.5,231.4c5.1,4.9,25.3,21.6,48.2-0.1c0.7-0.6,0.7-1.7,0-2.4l0,0c-0.3-0.3-0.7-0.5-1.2-0.5l-21.4,1.2
					c-1.1,0.1-2.2,0.1-3.3,0l-21.1-1.2c-0.4,0-0.8,0.2-1.1,0.4l-0.1,0.1C226.8,229.6,226.8,230.7,227.5,231.4z"/>
			</g>
		</g>
		<g id="male-5" class="st0">
			<g id="head_7_" class="st2">
				<path class="st67" d="M148.2,162.4c0,0-0.2,25.5,22.7,65.3c9.9,17.2,32.4,22.4,49.3,37.2c0,0,10.4,9.5,32,9.5V15.8
					C252.2,15.8,142.4,6,148.2,162.4z"/>
				<path class="st67" d="M355.5,162c0,0,0.2,25.5-22.7,65.3c-9.9,17.2-32.4,22.4-49.3,37.2c0,0-10.4,9.5-32,9.5V15.3
					C251.5,15.3,361.3,5.5,355.5,162z"/>
			</g>
			<g id="eyes_8_" class="st2">
				<g id="eye_9_">
					<ellipse class="st35" cx="288.2" cy="135.3" rx="18.2" ry="25.1"/>
					<ellipse class="st68" cx="288.2" cy="135.3" rx="8.5" ry="11.8"/>
					<ellipse class="st35" cx="292.9" cy="125.9" rx="3.1" ry="3.9"/>
				</g>
				<g id="eye_8_">
					<ellipse class="st35" cx="215.7" cy="135.3" rx="18.2" ry="25.1"/>
					<ellipse class="st68" cx="215.7" cy="135.3" rx="8.5" ry="11.8"/>
					<ellipse class="st35" cx="220.4" cy="125.9" rx="3.1" ry="3.9"/>
				</g>
			</g>
			<ellipse class="st69" cx="215.7" cy="136.2" rx="30.6" ry="31.5"/>
			<path class="st69" d="M233.8,110.8c0,0,41.6-28.6,57.5-88.4l5.1,2.3c0,0-16.4,58-58.5,89.8L233.8,110.8z"/>
			<path class="st69" d="M185.2,139.5l1.3,6.3c0,0-10.9,14-38.5,18l-0.2-4.7C147.8,159,171.7,155.2,185.2,139.5z"/>
			<path class="st50" d="M222,217.3c0,0-4.2,8.3,2,14.6c6.2,6.4,60.8-1,61.7-5.6S225.1,209.2,222,217.3z"/>
			<line class="st70" x1="220.6" y1="223.6" x2="285.7" y2="227.8"/>
			<path class="st71" d="M239.4,186c0,0-1.8,3.8,0.7,3.9s3.6,0.5,7.6,0.4"/>
			<path class="st71" d="M263.9,186c0,0,1.8,3.8-0.7,3.9c-2.4,0.1-3.6,0.5-7.6,0.4"/>
			<path class="st72" d="M255.6,224.2l0.3,3c0.1,0.4,0.3,0.7,0.6,1l35.2,22.9l7.8-23.6l-21.1-2.3c-0.3,0-0.6-0.1-1-0.1
				C275.1,224.6,264.3,222.7,255.6,224.2z"/>
			
				<ellipse transform="matrix(0.2249 -0.9744 0.9744 0.2249 -3.3478 475.0903)" class="st73" cx="296.9" cy="239.6" rx="11.6" ry="10.4"/>
			<line class="st74" x1="256.1" y1="224.5" x2="287.6" y2="234.2"/>
			<path class="st33" d="M223.8,203.4c0,0,0.1,0.1,0.4,0.2c1.6,0.5,8.2-0.6,13.3-6.5c0.3-0.4,0.8-0.6,1.3-0.6h12.6v7.1
				c0,0,0.3,6.3-13.4,6.3C238.1,209.9,223,209.8,223.8,203.4z"/>
			<path class="st33" d="M279.2,203.4c0,0-0.1,0.1-0.4,0.2c-1.6,0.5-8.2-0.6-13.3-6.5c-0.3-0.4-0.8-0.6-1.3-0.6h-12.6v7.1
				c0,0-0.3,6.3,13.4,6.3C264.9,209.9,280,209.8,279.2,203.4z"/>
		</g>
	</g>
	<g id="hair">
		<g id="male-1_1_" class="st0">
			<path class="st75" d="M353.9,165.3c0.1,0.8,1.2,0.9,1.5,0.2c3-8,10.5-34.3-0.7-80.8C341,28,359.9,6.3,286.9,8.9
				c-73,2.6-128.1-21.9-140.7,16.8c-9,27.7-5.2,77.3-2.1,113.7c1.2,14.3,0.8,26.2,3.1,34.5c0,0.1,0,0.2,0.1,0.3
				c0.5,1.2,3.6,8.3,9.4,3c6.3-5.8,6.8-126.5,31-113.3s103.5-32.3,120.8-4.2C325.6,87.5,338.2,65.2,353.9,165.3z"/>
			<g class="st2">
				<defs>
					<path id="SVGID_17_" d="M353.9,165.3c0.1,0.8,1.2,0.9,1.5,0.2c3-8,10.5-34.3-0.7-80.8C341,28,359.9,6.3,286.9,8.9
						c-73,2.6-128.1-21.9-140.7,16.8c-9,27.7-5.2,77.3-2.1,113.7c1.2,14.3,0.8,26.2,3.1,34.5c0,0.1,0,0.2,0.1,0.3
						c0.5,1.2,3.6,8.3,9.4,3c6.3-5.8,6.8-126.5,31-113.3s103.5-32.3,120.8-4.2C325.6,87.5,338.2,65.2,353.9,165.3z"/>
				</defs>
				<clipPath id="SVGID_18_">
					<use xlink:href="#SVGID_17_"  style="overflow:visible;"/>
				</clipPath>
				<path class="st76" d="M146.9,20.9c0,0,28.8-6,61.7-1.5S312,2.6,330.8,39.5s49.2,109,47.4,125.4l1.7-192L144.6,8.1L146.9,20.9z"
					/>
				<path class="st76" d="M277.5,55.2l-83.4,37.8l-22.9-6.7c0,0,0.9-25.7-30.6,49.1l-16.6,33.3l3.2-61.3c0,0,7.5-36.5,66.4-49
					S277.5,55.2,277.5,55.2z"/>
			</g>
		</g>
		<g class="st0">
			<path id="male-2_1_" class="st77" d="M251.9,59h-21.8c-0.9-26.3,4.5-45.6,4.5-45.6c4-0.4,17.2-0.6,17.2-0.6V59z"/>
			<path id="male-2_2_" class="st77" d="M251.9,12.9c0,0,13.2,0.1,17.2,0.6c0,0,5.4,19.3,4.5,45.6h-21.8V12.9z"/>
		</g>
		<g id="cap" class="st0">
			<path class="st78" d="M156.6,96c-2.5-44.8,37.4-83.5,89.1-86.4s95.8,31,98.3,75.8"/>
			<circle class="st79" cx="245.8" cy="10" r="9.7"/>
			<path class="st80" d="M179.4,94.7c-2.5-44.8,27.2-82.9,66.4-85.1s73,32.3,75.5,77.1"/>
			<path class="st79" d="M344,90.8l-186.8,10.5c-5.7,0.3-10.6-4.1-10.9-9.7v0c-0.3-5.7,4.1-10.6,9.7-10.9l186.8-10.5
				c5.7-0.3,10.6,4.1,10.9,9.7v0C354.1,85.6,349.7,90.5,344,90.8z"/>
		</g>
		<g class="st0">
			<path class="st81" d="M150.8,129.3c16.2-28.2,74.9-109,190.6-51l2.2-0.6C333.2,24.1,280.8-7.6,226.6,6.9
				c-54.2,14.5-89.7,69.8-79.2,123.4L150.8,129.3z"/>
			<path class="st82" d="M150.8,132.1c0,0,73.5-81.3,192.1-53.2C342.9,78.9,232.6,5.8,150.8,132.1z"/>
			<g class="st2">
				<defs>
					<path id="SVGID_19_" d="M150.8,129.3c16.2-28.2,74.9-109,190.6-51l2.2-0.6C333.2,24.1,280.8-7.6,226.6,6.9
						c-54.2,14.5-89.7,69.8-79.2,123.4L150.8,129.3z"/>
				</defs>
				<clipPath id="SVGID_20_">
					<use xlink:href="#SVGID_19_"  style="overflow:visible;"/>
				</clipPath>
				<g class="st83">
					<line class="st84" x1="209.7" y1="35.7" x2="202.6" y2="41.4"/>
					<path class="st84" d="M303.2,26.7c0,0-1.7,5.3-1.5,10.6"/>
					<path class="st84" d="M162.3,45.3c0.9-0.2,13.1,14.5,13.5,21.6s-8.8,11.9-12.1,14.6c0,0-15.2,7.3-3.5,30.7"/>
					<path class="st84" d="M202,77.5c-1.8-2.2,2.1-14.7,4.1-14.6c0,0,25.7-18,36.9-14.2s11.4-27.4-3-27.7
						c-14.3-0.4-28.2-11.5-28-13.3"/>
					<path class="st84" d="M215.1,13.2c0,0,4.5,13.9-3.2,20.3s-12.4,26.6-10.3,29.7"/>
					<path class="st84" d="M205,39.7c0,0-25.4,18.5-33.9,16.4"/>
					<path class="st84" d="M237.7,19.5c0,0,22.7-13,15.7-17.9"/>
					<path class="st84" d="M243.3,18.1c0,0,35.3,6.1,39,18S282,57,280.4,58"/>
					<path class="st84" d="M284.7,41.3c0,0,17.2-2.8,18.9-16.8c1.7-14,9.8-8.4,9.8-8.4"/>
					<path class="st84" d="M302,32.3c0,0-3.1,18.6,11.9,22.9s15-15.6,19.7-10.1"/>
					<path class="st84" d="M174.6,72.4l-9.2,7.8l-8.2,5.3c0,0-10.6-1.3-10.1-9.1"/>
				</g>
			</g>
			<path class="st85" d="M149.1,132c0,0,73.8-117.5,193.2-56.7"/>
		</g>
		<path class="st86" d="M173.9,92.2c-1.4,0.4-2.5,1.5-3,2.9c-2.4,6.8-10.2,26.4-21.5,25.5c-12.9-1-8.9-26.4-2.9-35.5
			c0.7-1.1,1-2.4,0.7-3.7c-1.8-7.6-6.4-34,12.6-43.6c1.2-0.6,2.1-1.7,2.5-3c1.2-4.7,5.6-16,21.3-21.6c0.1,0,0.2-0.1,0.3-0.1
			c2.4-1.1,34.4-15.5,51.5-2.7c1.2,0.9,2.8,1.2,4.3,0.7c11.2-4.1,58.6-20,76.9,2.7c0.7,0.9,1.8,1.5,3,1.7
			c7.1,0.8,31.2,5.9,24.6,34.6c-0.4,1.7,0.2,3.5,1.5,4.6c5.5,4.5,18.2,18.7,7.2,46.6c-0.7,1.8-2.4,2.9-4.3,2.9
			c-6.6-0.1-21.9-1.9-27.4-17.7c-0.5-1.5-1.9-2.6-3.5-2.9c-7.8-1.4-29.8-6.7-34.6-21.1c-0.5-1.5-1.7-2.6-3.2-2.9
			c-10.1-2.5-47-10.4-68.2,3.4c-0.4,0.2-0.7,0.5-1,0.9C207.5,67.2,190,87.2,173.9,92.2z"/>
	</g>
</g>
</svg>
