<?xml version="1.0" encoding="utf-8"?>
<!-- Generator: Adobe Illustrator 24.0.2, SVG Export Plug-In . SVG Version: 6.00 Build 0)  -->
<svg version="1.1" id="Warstwa_1" xmlns="http://www.w3.org/2000/svg" xmlns:xlink="http://www.w3.org/1999/xlink" x="0px" y="0px"
	 viewBox="0 0 500 500" style="enable-background:new 0 0 500 500;" xml:space="preserve">
<style type="text/css">
	.st0{display:none;}
	.st1{display:inline;}
	.st2{fill:#EFDBCE;}
	.st3{clip-path:url(#SVGID_2_);fill:#88C381;}
	.st4{clip-path:url(#SVGID_2_);fill:#FFFFFF;}
	.st5{fill:#88C381;}
	.st6{fill:#72AA2F;}
	.st7{fill:#40ABA8;}
	.st8{fill:#50BDC6;}
	.st9{fill:#40ABA8;stroke:#39808C;stroke-miterlimit:10;}
	.st10{fill:#51BDC6;}
	.st11{fill:#39808C;stroke:#44A3A3;stroke-miterlimit:10;}
	.st12{fill:none;stroke:#38808C;stroke-width:2;stroke-miterlimit:10;}
	.st13{fill:#38808C;}
	.st14{fill:#3D5E93;}
	.st15{fill:#3D5E94;}
	.st16{fill:#D6BCDC;}
	.st17{clip-path:url(#SVGID_4_);fill:none;stroke:#D7BCDC;stroke-width:3;stroke-miterlimit:10;}
	.st18{clip-path:url(#SVGID_6_);fill:none;stroke:#FFFFFF;stroke-width:5;stroke-miterlimit:10;}
	.st19{fill:#E1CCE5;}
	.st20{fill:#CDB1D6;}
	.st21{fill:#A5CF92;}
	.st22{fill:#CAE0B2;}
	.st23{fill:#8FB478;}
	.st24{fill:#A6CF93;}
	.st25{fill:#A6CF93;stroke:#FFFFFF;stroke-width:2;stroke-miterlimit:10;}
	.st26{fill:none;stroke:#999693;stroke-width:4;stroke-linecap:round;stroke-miterlimit:10;}
	.st27{fill:#616160;}
	.st28{fill:#757474;}
	.st29{clip-path:url(#SVGID_8_);}
	.st30{fill:none;stroke:#B7825C;stroke-width:12;stroke-miterlimit:10;}
	.st31{fill:none;stroke:#DEA883;stroke-width:12;stroke-miterlimit:10;}
	.st32{fill:none;stroke:#C6C6C6;stroke-width:5;stroke-miterlimit:10;}
	.st33{fill:#706F6F;}
	.st34{display:inline;fill:#FCE4DD;}
	.st35{fill:#FFFFFF;}
	.st36{fill:#47707C;}
	.st37{display:none;fill:#DBAB7F;}
	.st38{fill:#EED0B7;}
	.st39{fill:#D7B995;}
	.st40{clip-path:url(#SVGID_10_);}
	.st41{display:none;clip-path:url(#SVGID_10_);fill:#D45C40;}
	.st42{display:inline;fill:#735D45;}
	.st43{display:inline;fill:#745E46;}
	.st44{display:inline;fill:none;stroke:#C3A38A;stroke-width:3;stroke-linecap:round;stroke-miterlimit:10;}
	.st45{fill:#F4DDD7;}
	.st46{clip-path:url(#SVGID_12_);fill:#B3B3B3;}
	.st47{fill:none;}
	.st48{fill:#B3B3B3;}
	.st49{fill:#696861;}
	.st50{fill:#876A89;}
	.st51{fill:none;stroke:#B2B2B2;stroke-width:2;stroke-linecap:round;stroke-miterlimit:10;}
	.st52{display:inline;fill:#FEEBD7;}
	.st53{fill:#233326;}
	.st54{opacity:0.47;fill:#FFED00;}
	.st55{opacity:0.4;fill:#DBDBDB;stroke:#000000;stroke-miterlimit:10;}
	.st56{fill:none;stroke:#67665A;stroke-miterlimit:10;}
	.st57{fill:#6C6C69;}
	.st58{display:inline;fill:#F2DDD3;}
	.st59{fill:#D3C8C8;}
	.st60{fill:#6CC5D4;}
	.st61{opacity:0.67;fill:#999999;}
	.st62{fill:#D7B9B2;}
	.st63{fill:#6DA64B;}
	.st64{display:inline;fill:#4A494A;}
	.st65{display:inline;fill:#FFFFFF;}
	.st66{fill:none;stroke:#C6C6C6;stroke-width:0.25;stroke-miterlimit:10;}
	.st67{fill:none;stroke:#A8978F;stroke-width:0.75;stroke-linecap:round;stroke-miterlimit:10;}
	.st68{fill:#9D9D9C;}
	.st69{fill:#6C534A;stroke:#C6C6C6;stroke-width:2;stroke-linecap:round;stroke-miterlimit:10;}
	.st70{fill:none;stroke:#C6C6C6;stroke-linecap:round;stroke-miterlimit:10;}
</style>
<g id="set1">
	<g id="body" class="st0">
		<g id="_x35_" class="st1">
			<path class="st2" d="M394.7,486.3H109c-18.5,0-33.4-15-33.4-33.4V368c0-68.2,55.3-123.4,123.4-123.4h105.7
				c68.2,0,123.4,55.3,123.4,123.4v84.9C428.1,471.4,413.2,486.3,394.7,486.3z"/>
			<g>
				<defs>
					<path id="SVGID_1_" d="M394.7,486.3H109c-18.5,0-33.4-15-33.4-33.4V368c0-68.2,55.3-123.4,123.4-123.4h105.7
						c68.2,0,123.4,55.3,123.4,123.4v84.9C428.1,471.4,413.2,486.3,394.7,486.3z"/>
				</defs>
				<clipPath id="SVGID_2_">
					<use xlink:href="#SVGID_1_"  style="overflow:visible;"/>
				</clipPath>
				<path class="st3" d="M395.2,500H108.5V295.7c0-28.2,22.9-51.1,51.1-51.1h184.5c28.2,0,51.1,22.9,51.1,51.1V500z"/>
				<path class="st4" d="M241.7,325.9L181.3,246c-5.9-7.8-0.3-19.1,9.5-19.1h120.7c9.8,0,15.4,11.2,9.5,19.1l-60.3,79.8
					C255.9,332.1,246.4,332.1,241.7,325.9z"/>
			</g>
			<rect x="108.5" y="486.3" class="st5" width="286.7" height="13.7"/>
			<path class="st6" d="M339,401.2h-30.2c-3.9,0-7-3.1-7-7v-55.4H346v55.4C346,398,342.9,401.2,339,401.2z"/>
			<path class="st2" d="M241.7,319.3l-52.9-69.9c-5.9-7.8-0.3-19.1,9.5-19.1H304c9.8,0,15.4,11.2,9.5,19.1l-52.9,69.9
				C255.9,325.6,246.4,325.6,241.7,319.3z"/>
		</g>
		<g id="_x34__1_" class="st1">
			<path class="st7" d="M394.7,486.3H109c-18.5,0-33.4-15-33.4-33.4V368c0-68.2,55.3-123.4,123.4-123.4h105.7
				c68.2,0,123.4,55.3,123.4,123.4v84.9C428.1,471.4,413.2,486.3,394.7,486.3z"/>
			<path class="st8" d="M402.4,500H101.3V367.6c0-48.4,39.2-87.6,87.6-87.6h125.9c48.4,0,87.6,39.2,87.6,87.6V500z"/>
			<g id="buttons_1_">
				<g id="button_6_">
					<circle class="st9" cx="241.7" cy="450.9" r="10.3"/>
					<circle class="st10" cx="238.2" cy="447.4" r="1.5"/>
					<circle class="st10" cx="245.1" cy="447.4" r="1.5"/>
					<circle class="st10" cx="245.1" cy="454.9" r="1.5"/>
					<circle class="st10" cx="238.2" cy="454.9" r="1.5"/>
				</g>
				<g id="button_5_">
					<circle class="st9" cx="241.7" cy="339.3" r="10.3"/>
					<circle class="st10" cx="238.2" cy="335.7" r="1.5"/>
					<circle class="st10" cx="245.1" cy="335.7" r="1.5"/>
					<circle class="st10" cx="245.1" cy="343.3" r="1.5"/>
					<circle class="st10" cx="238.2" cy="343.3" r="1.5"/>
				</g>
				<g id="button_4_">
					<circle class="st11" cx="241.7" cy="394.6" r="10.3"/>
					<circle class="st10" cx="238.2" cy="391.1" r="1.5"/>
					<circle class="st10" cx="245.1" cy="391.1" r="1.5"/>
					<circle class="st10" cx="245.1" cy="398.7" r="1.5"/>
					<circle class="st10" cx="238.2" cy="398.7" r="1.5"/>
				</g>
			</g>
			<line class="st12" x1="260.7" y1="297.1" x2="260.7" y2="500"/>
			<path class="st13" d="M244.6,299.7L186.8,261c-9.8-6.5-5.1-21.8,6.6-21.8h115.5c11.8,0,16.4,15.2,6.6,21.8l-57.8,38.6
				C253.8,302.3,248.6,302.3,244.6,299.7z"/>
		</g>
		<g id="_x33__1_" class="st1">
			<path class="st14" d="M394.7,486.3H109c-18.5,0-33.4-15-33.4-33.4V368c0-68.2,55.3-123.4,123.4-123.4h105.7
				c68.2,0,123.4,55.3,123.4,123.4v84.9C428.1,471.4,413.2,486.3,394.7,486.3z"/>
			<path class="st15" d="M402.4,500H101.3V367.6c0-48.4,39.2-87.6,87.6-87.6h125.9c48.4,0,87.6,39.2,87.6,87.6V500z"/>
			<path class="st16" d="M244.6,299.7L186.8,261c-9.8-6.5-5.1-21.8,6.6-21.8h115.5c11.8,0,16.4,15.2,6.6,21.8l-57.8,38.6
				C253.8,302.3,248.6,302.3,244.6,299.7z"/>
			<g>
				<defs>
					<path id="SVGID_3_" d="M244.6,299.7L186.8,261c-9.8-6.5-5.1-21.8,6.6-21.8h115.5c11.8,0,16.4,15.2,6.6,21.8l-57.8,38.6
						C253.8,302.3,248.6,302.3,244.6,299.7z"/>
				</defs>
				<clipPath id="SVGID_4_">
					<use xlink:href="#SVGID_3_"  style="overflow:visible;"/>
				</clipPath>
				<line class="st17" x1="172.5" y1="247.2" x2="262.3" y2="307.2"/>
				<line class="st17" x1="172.5" y1="240.2" x2="262.3" y2="300.2"/>
				<line class="st17" x1="172.5" y1="233.2" x2="262.3" y2="293.2"/>
				<line class="st17" x1="334.3" y1="247.2" x2="244.5" y2="307.2"/>
				<line class="st17" x1="334.3" y1="240.2" x2="244.5" y2="300.2"/>
				<line class="st17" x1="334.3" y1="233.2" x2="244.5" y2="293.2"/>
			</g>
			<path class="st16" d="M251.4,434.4L251.4,434.4c-5.6,0-9.8-0.5-9.8-5.6l-5.1-120.5c0-5.1,9.7-9.9,15.2-9.9h0
				c5.6,0,14.7,4.2,14.7,9.3l-4.6,121.1C261.8,433.9,257,434.4,251.4,434.4z"/>
			<g>
				<defs>
					<path id="SVGID_5_" d="M251.4,434.4L251.4,434.4c-5.6,0-9.8-0.5-9.8-5.6l-5.1-120.5c0-5.1,9.7-9.9,15.2-9.9h0
						c5.6,0,14.7,4.2,14.7,9.3l-4.6,121.1C261.8,433.9,257,434.4,251.4,434.4z"/>
				</defs>
				<clipPath id="SVGID_6_">
					<use xlink:href="#SVGID_5_"  style="overflow:visible;"/>
				</clipPath>
				<line class="st18" x1="225.6" y1="385" x2="275.1" y2="346.6"/>
				<line class="st18" x1="225.6" y1="410.9" x2="275.1" y2="372.6"/>
				<line class="st18" x1="225.6" y1="359" x2="275.1" y2="320.7"/>
				<line class="st18" x1="225.6" y1="333" x2="275.1" y2="294.7"/>
				<line class="st18" x1="225.6" y1="436.9" x2="275.1" y2="398.6"/>
			</g>
			<path class="st19" d="M243.8,311.5l-22.2-18.6c-8.5-7.1-3.5-21,7.6-21h44.5c11.1,0,16.1,13.9,7.6,21L259,311.5
				C254.6,315.2,248.2,315.2,243.8,311.5z"/>
			<path class="st19" d="M194,342.2v43.1c0,6.6-4.3,12-9.6,12h-35.5c-5.3,0-9.6-5.4-9.6-12v-43.1"/>
			<rect x="139.3" y="342.2" class="st20" width="54.7" height="9.6"/>
		</g>
		<g id="_x32_" class="st1">
			<path class="st21" d="M394.7,486.3H109c-18.5,0-33.4-15-33.4-33.4V368c0-68.2,55.3-123.4,123.4-123.4h105.7
				c68.2,0,123.4,55.3,123.4,123.4v84.9C428.1,471.4,413.2,486.3,394.7,486.3z"/>
			<path class="st22" d="M407.2,501.6H96.6V371.3c0-49.7,40.3-90,90-90h130.6c49.7,0,90,40.3,90,90V501.6z"/>
			<path class="st22" d="M252.2,333.7l-82.9-88.4c-2.3-2.4-0.6-6.4,2.8-6.4h165.8c3.3,0,5.1,4,2.8,6.4l-82.9,88.4
				C256.3,335.3,253.7,335.3,252.2,333.7z"/>
			<path class="st23" d="M165.5,440.4h179c1.7,0,2.9,1.3,2.4,2.6l-11.7,31.6c-2.9,7-6.5,11.7-14.5,11.7H189.3
				c-7.9,0-12.1-5.4-14.5-11.7l-11.7-31.6C162.6,441.7,163.8,440.4,165.5,440.4z"/>
			<path class="st24" d="M295.4,650.6"/>
			<g>
				<circle class="st25" cx="212" cy="290.8" r="8.2"/>
				<line class="st26" x1="212" y1="289.3" x2="212" y2="364.7"/>
			</g>
			<g>
				<circle class="st25" cx="294.1" cy="290.8" r="8.2"/>
				<line class="st26" x1="294.1" y1="289.3" x2="294.1" y2="355.1"/>
			</g>
		</g>
		<g id="_x31_" class="st1">
			<path class="st27" d="M394.7,486.3H109c-18.5,0-33.4-15-33.4-33.4V368c0-68.2,55.3-123.4,123.4-123.4h105.7
				c68.2,0,123.4,55.3,123.4,123.4v84.9C428.1,471.4,413.2,486.3,394.7,486.3z"/>
			<path class="st28" d="M402.4,500H101.3V367.6c0-48.4,39.2-87.6,87.6-87.6h125.9c48.4,0,87.6,39.2,87.6,87.6V500z"/>
			<g>
				<defs>
					<path id="SVGID_7_" d="M402.4,500H101.3V370c0-49.7,40.3-90,90-90h121.1c49.7,0,90,40.3,90,90V500z"/>
				</defs>
				<clipPath id="SVGID_8_">
					<use xlink:href="#SVGID_7_"  style="overflow:visible;"/>
				</clipPath>
				<g class="st29">
					<g id="stripes">
						<line class="st30" x1="79.8" y1="304.9" x2="254.5" y2="368.2"/>
						<line class="st30" x1="424.9" y1="305" x2="250.6" y2="368.2"/>
					</g>
					<g id="stripes_1_">
						<line class="st31" x1="65.1" y1="265" x2="254.1" y2="328.3"/>
						<line class="st31" x1="438.4" y1="265.1" x2="249.8" y2="328.3"/>
					</g>
					<g id="stripes_4_">
						<line class="st31" x1="65.1" y1="345" x2="254.1" y2="408.3"/>
						<line class="st31" x1="438.4" y1="345.1" x2="249.8" y2="408.3"/>
					</g>
					<g id="stripes_2_">
						<line class="st30" x1="65.1" y1="385.1" x2="254.1" y2="448.5"/>
						<line class="st30" x1="438.4" y1="385.2" x2="249.8" y2="448.4"/>
					</g>
					<g id="stripes_3_">
						<line class="st31" x1="65.1" y1="425.2" x2="254.1" y2="488.6"/>
						<line class="st31" x1="438.4" y1="425.3" x2="249.8" y2="488.5"/>
					</g>
					<line class="st32" x1="251.5" y1="500" x2="251.5" y2="300.4"/>
				</g>
			</g>
			<path class="st33" d="M244,301.6l-67.7-34.1c-16.4-8.2-10.5-32.9,7.8-32.9h135.4c18.3,0,24.2,24.7,7.8,32.9l-67.7,34.1
				C254.8,304.1,249,304.1,244,301.6z"/>
		</g>
	</g>
	<g id="face">
		<g id="male-1" class="st0">
			<path class="st34" d="M263.1,17.4c-10.8-1.1-21.7,0-21.7,0c-27.6,2.3-97.8,20.5-93.1,146.5c0,0-0.2,25.5,22.7,65.3
				c9.9,17.2,32.4,22.4,49.3,37.2c0,0,10.4,9.5,32,9.5c21.6,0,32-9.5,32-9.5c16.9-14.9,39.4-20,49.3-37.2
				c22.9-39.8,22.7-65.3,22.7-65.3C360.8,37.9,290.6,19.7,263.1,17.4z"/>
			<g id="eyes_2_" class="st1">
				<g id="eye_2_">
					<ellipse class="st35" cx="285" cy="141.8" rx="15" ry="16.9"/>
					<ellipse class="st36" cx="285" cy="141.8" rx="7.6" ry="8.6"/>
					<ellipse class="st35" cx="287.9" cy="138.5" rx="1.1" ry="1.2"/>
				</g>
			</g>
			<g id="eyes_3_" class="st1">
				<g id="eye_3_">
					<ellipse class="st35" cx="216.1" cy="141.8" rx="15" ry="16.9"/>
					<ellipse class="st36" cx="216.1" cy="141.8" rx="7.6" ry="8.6"/>
					<ellipse class="st35" cx="219" cy="138.5" rx="1.1" ry="1.2"/>
				</g>
			</g>
			<g id="eyebrows" class="st1">
				<path class="st37" d="M313.4,118.3l-31.3-13.9c-1-0.5-1.5-1.7-1.1-2.7l1.4-3.3c0.5-1,1.7-1.5,2.7-1.1l31.3,13.9
					c1,0.5,1.5,1.7,1.1,2.7l-1.4,3.3C315.7,118.3,314.5,118.7,313.4,118.3z"/>
			</g>
			<g id="mounth" class="st1">
				<path class="st38" d="M225.2,220c0,11.1,11.8,20.1,26.3,20.1c14.5,0,26.3-9,26.3-20.1"/>
				<path class="st39" d="M279.9,217.3c0,10.8-12.5,19.5-28,19.5s-28-8.7-28-19.5"/>
				<g>
					<defs>
						<path id="SVGID_9_" d="M279.9,217.3c0,10.8-12.5,19.5-28,19.5s-28-8.7-28-19.5"/>
					</defs>
					<clipPath id="SVGID_10_">
						<use xlink:href="#SVGID_9_"  style="overflow:visible;"/>
					</clipPath>
					<g class="st40">
						<path class="st35" d="M219.3,218.3c5.6-2.5,11.2-3.8,16.8-4.7c5.6-0.9,11.2-1.3,16.8-1.3c5.6,0,11.2,0.4,16.8,1.3
							c5.6,0.9,11.2,2.2,16.8,4.7c-5.6,2.5-11.2,3.8-16.8,4.7c-5.6,0.9-11.2,1.3-16.8,1.3c-5.6,0-11.2-0.4-16.8-1.3
							C230.5,222.1,224.9,220.8,219.3,218.3z"/>
					</g>
					<path class="st41" d="M269.7,232.8c0,0-6.6-6.5-15.9-3c0,0-5.2-4-19.7,6.8C234,236.5,251,246,269.7,232.8z"/>
				</g>
			</g>
			<path class="st42" d="M272.3,98c0,0-5.4,3.2-4.4,7l39.3,11.4c0,0,2.7-1.2,2.6-3.5L272.3,98z"/>
			<path class="st43" d="M198.6,101.3c0,0-4,4.6,0,8.4c0,0,37.8-1,37.9-2.1c0.2-1.1,0.8-6-3.8-6.3C228,101,198.6,101.3,198.6,101.3z
				"/>
			<path class="st44" d="M241.4,184.6c0,0,2.3,0,3.4,0.8c0.3,0.2,0.6,0.4,1,0.5c1.9,0.4,7.4,1.5,10.7-0.2c0,0,2-1.3,4.4-1.1"/>
		</g>
		<g id="male-2">
			<path class="st45" d="M263.1,17.4c-10.8-1.1-21.7,0-21.7,0c-27.6,2.3-97.8,20.5-93.1,146.5c0,0-0.2,25.5,22.7,65.3
				c9.9,17.2,32.4,22.4,49.3,37.2c0,0,10.4,9.5,32,9.5c21.6,0,32-9.5,32-9.5c16.9-14.9,39.4-20,49.3-37.2
				c22.9-39.8,22.7-65.3,22.7-65.3C360.8,37.9,290.6,19.7,263.1,17.4z"/>
			<g id="beard">
				<g>
					<defs>
						<path id="SVGID_11_" d="M263.1,17.4c-10.8-1.1-21.7,0-21.7,0c-27.6,2.3-97.8,20.5-93.1,146.5c0,0-0.2,25.5,22.7,65.3
							c9.9,17.2,32.4,22.4,49.3,37.2c0,0,10.4,9.5,32,9.5c21.6,0,32-9.5,32-9.5c16.9-14.9,39.4-20,49.3-37.2
							c22.9-39.8,22.7-65.3,22.7-65.3C360.8,37.9,290.6,19.7,263.1,17.4z"/>
					</defs>
					<clipPath id="SVGID_12_">
						<use xlink:href="#SVGID_11_"  style="overflow:visible;"/>
					</clipPath>
					<path class="st46" d="M252.5,283.4l130.2-41.3l-26.3-63.9c0,0-4-16.7-20.2,6.7c-16.1,23.2-39.9,65.4-84.6,65.9
						c-44.7-0.5-68.5-42.8-84.6-65.9c-16.2-23.3-20.2-6.7-20.2-6.7l-26.3,63.9l130.2,41.3l0,0.5l0.8-0.3l0.8,0.3L252.5,283.4z"/>
				</g>
				<g>
					<path class="st47" d="M252.7,206L252.7,206l-0.7,0l-0.7,0v0l-32.2-0.1c0,0-7.7,10.5,0.6,26.2c8.3,15.7,13.2,11,32.3,11l0,0.1
						l0-0.1c19.1,0,24,4.7,32.3-11c8.3-15.7,0.6-26.2,0.6-26.2L252.7,206z"/>
					<path class="st48" d="M285,198.5c-14.2,0-28.3,0-32.3,0c-0.7,0-1.1,0-1.1,0c-4,0-18.1,0-32.3,0c-16.8,0-9.3,40.2-9.3,40.2
						l3.1,8.5l38.9,5.2l0,0.1l0.2,0l0.2,0l0-0.1l38.9-5.2l3.1-8.5C294.3,238.7,301.8,198.5,285,198.5z M284.4,232.2
						c-8.3,15.7-13.2,11-32.3,11l0,0.1l0-0.1c-19.1,0-24,4.7-32.3-11c-8.3-15.7-0.6-26.2-0.6-26.2l32.2,0.1v0l0.7,0l0.7,0v0L285,206
						C285,206,292.6,216.5,284.4,232.2z"/>
				</g>
			</g>
			<g id="eyebrows_1_">
				<path class="st49" d="M233.4,108.5v6c0,0-19.3-0.6-28.7,3.1l-1.3-6.1C203.4,111.5,217.1,106,233.4,108.5z"/>
				<path class="st49" d="M267.3,109.9l1.4,4.9c0,0,19.4-4.7,33.8-2.5l-1.2-5.2C301.4,107.2,285.9,104.2,267.3,109.9z"/>
			</g>
			<g id="eyes_1_">
				<g id="eye">
					<ellipse class="st35" cx="218.4" cy="141.8" rx="15" ry="19.9"/>
					<ellipse class="st50" cx="218.4" cy="141.8" rx="7.6" ry="10.1"/>
					<ellipse class="st35" cx="221.3" cy="137.9" rx="1.1" ry="1.5"/>
				</g>
				<g id="eye_1_">
					<ellipse class="st35" cx="285" cy="141.8" rx="15" ry="19.9"/>
					<ellipse class="st50" cx="285" cy="141.8" rx="7.6" ry="10.1"/>
					<ellipse class="st35" cx="287.9" cy="137.9" rx="1.1" ry="1.5"/>
				</g>
			</g>
			<path id="mounth_1_" class="st35" d="M280.4,214c0,10-12.7,18.1-28.3,18.1s-28.3-8.1-28.3-18.1"/>
			<path id="nose_1_" class="st51" d="M245.7,178.8c0,0,5.5,4.4,13,0"/>
		</g>
		<g id="male-3" class="st0">
			<path class="st52" d="M263.1,17.4c-10.8-1.1-21.7,0-21.7,0c-27.6,2.3-97.8,20.5-93.1,146.5c0,0-0.2,25.5,22.7,65.3
				c9.9,17.2,32.4,22.4,49.3,37.2c0,0,10.4,9.5,32,9.5c21.6,0,32-9.5,32-9.5c16.9-14.9,39.4-20,49.3-37.2
				c22.9-39.8,22.7-65.3,22.7-65.3C360.8,37.9,290.6,19.7,263.1,17.4z"/>
			<g id="eyes_4_" class="st1">
				<g id="eye_4_">
					<ellipse class="st35" cx="289.7" cy="143.7" rx="13.9" ry="19.6"/>
					<ellipse class="st53" cx="289.7" cy="143.7" rx="7.1" ry="9.9"/>
					<ellipse class="st35" cx="293" cy="136.7" rx="2.5" ry="2.2"/>
				</g>
				<g id="eye_5_">
					<ellipse class="st35" cx="213.3" cy="143.7" rx="13.9" ry="19.6"/>
					<ellipse class="st53" cx="213.3" cy="143.7" rx="7.1" ry="9.9"/>
					<ellipse class="st35" cx="216.6" cy="136.7" rx="2.5" ry="2.2"/>
				</g>
			</g>
			<g class="st1">
				<g>
					<path class="st54" d="M212.9,113.4c-5.1,0-9.9,1.5-14,4.1L185.5,138c-0.3,1.8-0.5,3.7-0.5,5.7c0,4,0.7,7.8,2,11.3l27.2-41.6
						C213.8,113.4,213.3,113.4,212.9,113.4z"/>
					<path class="st54" d="M206.8,173.4l29.8-45.7c-1.9-3.3-4.3-6.1-7.1-8.4l-32.4,49.5C200.1,171,203.3,172.5,206.8,173.4z"/>
					<path class="st54" d="M240.9,143.7c0-1.5-0.1-2.9-0.3-4.3l-22.3,34.1C231.1,170.8,240.9,158.5,240.9,143.7z"/>
				</g>
				<g>
					<path class="st54" d="M289.9,113.4c-5.1,0-9.9,1.5-14,4.1L262.5,138c-0.3,1.8-0.5,3.7-0.5,5.7c0,4,0.7,7.8,2,11.3l27.2-41.6
						C290.8,113.4,290.3,113.4,289.9,113.4z"/>
					<path class="st54" d="M283.8,173.4l29.8-45.7c-1.9-3.3-4.3-6.1-7.1-8.4l-32.4,49.5C277.1,171,280.3,172.5,283.8,173.4z"/>
					<path class="st54" d="M317.9,143.7c0-1.5-0.1-2.9-0.3-4.3l-22.3,34.1C308.1,170.8,317.9,158.5,317.9,143.7z"/>
				</g>
				<ellipse class="st55" cx="212.9" cy="143.7" rx="27.9" ry="30.4"/>
				<ellipse class="st55" cx="290.1" cy="143.7" rx="27.9" ry="30.4"/>
				<path class="st56" d="M240.2,135.9c0,0,11.4-9.3,22.8,0"/>
				<path class="st56" d="M240.9,189.2c0,0,13.1,7.6,21.4,0"/>
				<path class="st57" d="M197.4,106.3c0,0,17.6-11.2,35.8,0l1.6-4.1c0,0-17.3-11.4-36.4-0.8L197.4,106.3z"/>
				<path class="st57" d="M265.6,102.9l3.7,4.7c0,0,13.7-8.2,33.5-1.5l-2.5-4.2C300.3,101.9,282.8,94,265.6,102.9z"/>
				<path class="st35" d="M227.2,220.7v0.2c0,1.3,0.6,2.5,1.6,3.4c6,4.6,27.2,18.5,49.7,0c1-0.8,1.6-2,1.6-3.3l0,0
					c0-2.8-2.6-4.8-5.3-4.1c-7.7,2-23.2,4.5-42.4-0.2C229.8,216,227.2,218,227.2,220.7z"/>
			</g>
		</g>
		<g id="male-4" class="st0">
			<path class="st58" d="M263,17.4c-10.8-0.9-21.7,0-21.7,0c-27.6,2.3-97.8,20.5-93.1,146.5c0,0-0.2,25.5,22.7,65.3
				c9.9,17.2,32.4,22.4,49.3,37.2c0,0,10.4,9.5,32,9.5c21.6,0,32-9.5,32-9.5c16.9-14.9,39.4-20,49.3-37.2
				c22.9-39.8,22.7-65.3,22.7-65.3C360.8,39.9,290.6,19.7,263,17.4z"/>
			<g class="st1">
				<path class="st47" d="M280.9,222.9c-7.3-0.7-25.8-0.6-28.5-0.6v0c0,0-0.1,0-0.2,0c-0.1,0-0.2,0-0.2,0v0
					c-2.7,0-21.2-0.1-28.5,0.6c-1.8,0.2-3.4,1.3-3.9,2.9c-2.2,6.8,8.5,18.9,32.7,19.3c24.1-0.4,34.8-12.5,32.7-19.3
					C284.3,224.2,282.7,223.1,280.9,222.9z"/>
				<path class="st59" d="M271.1,209.4l-18.9,0.1l-18.9-0.1c-33.9,1.7-70.8-31.4-85.1-45.8c0,0.1,0,0.1,0,0.2
					c0,0-0.2,25.5,22.7,65.3c9.9,17.2,32.4,22.4,49.3,37.2c0,0,10.4,9.5,32,9.5c21.6,0,32-9.5,32-9.5c16.9-14.9,39.4-20,49.3-37.2
					c22.9-39.8,22.7-65.3,22.7-65.3c0-0.1,0-0.2,0-0.2C341.9,178,305,211.1,271.1,209.4z M252.2,245.1
					c-24.1-0.4-34.8-12.5-32.7-19.3c0.5-1.6,2.1-2.7,3.9-2.9c7.3-0.7,25.8-0.6,28.5-0.6v0c0,0,0.1,0,0.2,0c0.1,0,0.2,0,0.2,0v0
					c2.7,0,21.2-0.1,28.5,0.6c1.8,0.2,3.4,1.3,3.9,2.9C287,232.6,276.3,244.7,252.2,245.1z"/>
			</g>
			<g id="eyes_5_" class="st1">
				<g id="eye_7_">
					<ellipse class="st35" cx="289.7" cy="136.7" rx="13.9" ry="15.2"/>
					<ellipse class="st60" cx="289.7" cy="136.7" rx="8" ry="8.7"/>
					<circle class="st35" cx="293.3" cy="131" r="2.4"/>
				</g>
			</g>
			<g id="eyes_6_" class="st1">
				<g id="eye_6_">
					<ellipse class="st35" cx="213.7" cy="138.7" rx="13.9" ry="15.2"/>
					<ellipse class="st60" cx="213.7" cy="138.7" rx="8" ry="8.7"/>
					<circle class="st35" cx="217.3" cy="133" r="2.4"/>
				</g>
			</g>
			<g class="st1">
				<path class="st35" d="M195.3,123.5c0,0,13.2-15.9,37.7-2.4l2.9-5.5c0,0-15.8-14.3-40,0L195.3,123.5z"/>
				<path class="st35" d="M270.2,108.8l3.5,6.8c0,0,12.4-12.8,35.8-2.1l-1-7.8C308.5,105.7,285.7,93.4,270.2,108.8z"/>
				<g>
					<circle class="st61" cx="221.3" cy="162" r="20.6"/>
					<circle class="st61" cx="283.6" cy="159.3" r="20.6"/>
					<path class="st61" d="M236,148.5c0,0,13.6-12,31.2-1.4l0.2,1.8c0,0-15.7-11.2-31.5,1.3L236,148.5z"/>
					<path class="st61" d="M303.8,163.4l6.4,44.8c0,0,2,1,2-0.5l-8-50.5L303.8,163.4z"/>
				</g>
				<path class="st62" d="M263.3,192.5c0,0-2.4,2-5.1,3.6c-2.7,1.6-6.7,1.5-6.7,1.5s-4,0-6.7-1.5c-2.7-1.6-5.1-3.6-5.1-3.6h-1.6
					c0,0,2.8,6.3,13.4,6.4c10.6-0.1,13.4-6.4,13.4-6.4H263.3z"/>
				<path class="st35" d="M227.5,229.8c5.1,4.9,25.3,21.6,48.2-0.1c0.7-0.6,0.7-1.7,0-2.4v0c-0.3-0.3-0.7-0.5-1.2-0.5l-21.4,1.2
					c-1.1,0.1-2.2,0.1-3.3,0l-21.1-1.2c-0.4,0-0.8,0.2-1.1,0.4l-0.1,0.1C226.8,228,226.8,229.1,227.5,229.8z"/>
			</g>
		</g>
		<g id="male-5" class="st0">
			<path class="st34" d="M263.1,17.4c-10.8-1.1-21.7,0-21.7,0c-27.6,2.3-97.8,20.5-93.1,146.5c0,0-0.2,25.5,22.7,65.3
				c9.9,17.2,32.4,22.4,49.3,37.2c0,0,10.4,9.5,32,9.5c21.6,0,32-9.5,32-9.5c16.9-14.9,39.4-20,49.3-37.2
				c22.9-39.8,22.7-65.3,22.7-65.3C360.8,37.9,290.6,19.7,263.1,17.4z"/>
			<g id="eyes_8_" class="st1">
				<g id="eye_9_">
					<ellipse class="st35" cx="288.2" cy="136.7" rx="18.2" ry="25.1"/>
					<ellipse class="st63" cx="288.2" cy="136.7" rx="8.5" ry="11.8"/>
					<ellipse class="st35" cx="292.9" cy="127.3" rx="3.1" ry="3.9"/>
				</g>
				<g id="eye_8_">
					<ellipse class="st35" cx="215.7" cy="136.7" rx="18.2" ry="25.1"/>
					<ellipse class="st63" cx="215.7" cy="136.7" rx="8.5" ry="11.8"/>
					<ellipse class="st35" cx="220.4" cy="127.3" rx="3.1" ry="3.9"/>
				</g>
			</g>
			<ellipse class="st64" cx="215.7" cy="137.6" rx="30.6" ry="31.5"/>
			<path class="st64" d="M233.8,112.2c0,0,41.6-28.6,57.5-88.4l5.1,2.3c0,0-16.4,58-58.5,89.8L233.8,112.2z"/>
			<path class="st64" d="M185.2,140.9l1.3,6.3c0,0-10.9,14-38.5,18l-0.2-4.7C147.8,160.5,171.7,156.6,185.2,140.9z"/>
			<path class="st65" d="M222,218.8c0,0-4.2,8.3,2,14.6s60.8-1,61.7-5.6C286.5,223.1,225.1,210.6,222,218.8z"/>
			<g class="st1">
				<line class="st66" x1="220.6" y1="225" x2="285.7" y2="229.2"/>
				<path class="st67" d="M239.4,187.4c0,0-1.8,3.8,0.7,3.9c2.4,0.1,3.6,0.5,7.6,0.4"/>
				<path class="st67" d="M263.9,187.4c0,0,1.8,3.8-0.7,3.9c-2.4,0.1-3.6,0.5-7.6,0.4"/>
				<path class="st68" d="M255.6,225.6l0.3,3c0.1,0.4,0.3,0.7,0.6,1l35.2,22.9l7.8-23.6l-21.1-2.3c-0.3,0-0.6-0.1-1-0.1
					C275.1,226,264.3,224.1,255.6,225.6z"/>
				
					<ellipse transform="matrix(0.2249 -0.9744 0.9744 0.2249 -4.7321 476.1915)" class="st69" cx="296.9" cy="241.1" rx="11.6" ry="10.4"/>
				<line class="st70" x1="256.1" y1="225.9" x2="287.6" y2="235.6"/>
				<path class="st33" d="M223.8,204.8c0,0,0.1,0.1,0.4,0.2c1.6,0.5,8.2-0.6,13.3-6.5c0.3-0.4,0.8-0.6,1.3-0.6h12.6v7.1
					c0,0,0.3,6.3-13.4,6.3C238.1,211.3,223,211.2,223.8,204.8z"/>
				<path class="st33" d="M279.2,204.8c0,0-0.1,0.1-0.4,0.2c-1.6,0.5-8.2-0.6-13.3-6.5c-0.3-0.4-0.8-0.6-1.3-0.6h-12.6v7.1
					c0,0-0.3,6.3,13.4,6.3C264.9,211.3,280,211.2,279.2,204.8z"/>
			</g>
		</g>
	</g>
</g>
</svg>
